<?xml version="1.0" encoding="utf-8"?>
<!-- Generator: Adobe Illustrator 23.0.3, SVG Export Plug-In . SVG Version: 6.00 Build 0)  -->
<svg version="1.1" id="Layer_1" xmlns="http://www.w3.org/2000/svg" xmlns:xlink="http://www.w3.org/1999/xlink" x="0px" y="0px"
	 viewBox="0 0 505.1 97.2" style="enable-background:new 0 0 505.1 97.2;" xml:space="preserve">
<style type="text/css">
	.st0{clip-path:url(#SVGID_2_);}
	.st1{fill:#FFFFFF;}
</style>
<g>
	<defs>
		<rect id="SVGID_1_" width="505.1" height="97.2"/>
	</defs>
	<clipPath id="SVGID_2_">
		<use xlink:href="#SVGID_1_"  style="overflow:visible;"/>
	</clipPath>
	<g id="Artboard_1" class="st0">
		<g id="AlertLogic-logo" transform="translate(0.551 -206.35)">
			<g id="Group_5" transform="translate(3.449 207.35)">
				<g id="Group_3" transform="translate(94.5 30.053)">
					<g id="Group_2">
						<path id="Path_1" class="st1" d="M16.9,0.9L0,35.7h6l4.4-9h17.4l4.5,9h6L21.2,0.9L16.9,0.9L16.9,0.9z M12.8,21.4L19,8.9
							l6.2,12.5H12.8z M52.2,0.9h-5.5v34.8h27.1v-5.3H52.2V0.9z M87.6,19.9h13.3v-5.3H87.7V6.2h21.9V0.9H82.2v34.8h28.7v-5.3H87.7
							L87.6,19.9L87.6,19.9z M146.3,19.8c1-0.6,1.9-1.4,2.6-2.3c0.8-0.9,1.4-2,1.8-3.1c0.4-1.1,0.6-2.3,0.6-3.5
							c0.1-1.4-0.2-2.9-0.8-4.2c-1.1-2.5-3.3-4.4-5.9-5.2c-1.5-0.4-3-0.6-4.5-0.6h-19.7v34.8h5.6V21.1h11.7l8.3,14.6h6.1l-8.3-14.8
							C144.7,20.6,145.5,20.3,146.3,19.8L146.3,19.8z M139.9,15.8h-13.8V6.1h14.1c0.8,0,1.6,0.1,2.3,0.3c0.6,0.2,1.2,0.5,1.7,0.9
							c0.4,0.4,0.8,0.9,1,1.5c0.2,0.7,0.3,1.5,0.3,2.2c0,0.7-0.1,1.4-0.3,2.1c-0.2,0.5-0.5,1-0.9,1.4c-0.5,0.4-1.1,0.7-1.7,0.9
							C141.7,15.7,140.8,15.8,139.9,15.8L139.9,15.8z M159,0.9v5.3h13.8v29.5h5.7V6.2h13.9V0.9L159,0.9L159,0.9z"/>
						<g id="Group_1" transform="translate(216.4)">
							<path id="Path_2" class="st1" d="M5.6,0.9H0v34.8h27.1v-5.2H5.6V0.9z"/>
							<path id="Path_3" class="st1" d="M64.9,5.4c-1.6-1.7-3.5-3-5.7-3.9c-2.2-0.9-4.6-1.4-7-1.3C47.4,0,42.7,1.9,39.4,5.4
								c-1.7,1.6-3,3.6-3.8,5.8c-0.9,2.3-1.3,4.7-1.3,7.1c0,2.5,0.4,4.9,1.2,7.2c0.8,2.2,2.1,4.2,3.8,5.9c1.6,1.7,3.5,3,5.7,3.8
								c2.2,0.8,4.6,1.3,7,1.3c2.4,0,4.8-0.4,7-1.3c2.1-0.8,4.1-2.1,5.7-3.7c0.8-0.9,1.6-1.8,2.3-2.8c0.6-1,1.2-2.1,1.6-3.2
								c0.4-1.1,0.7-2.2,0.9-3.4c0.2-1.2,0.3-2.5,0.3-3.7c0-2.4-0.4-4.8-1.3-7.1C67.8,9.1,66.6,7,64.9,5.4z M63.4,23.6
								c-0.6,1.5-1.4,2.9-2.5,4.1c-1.1,1.1-2.4,2.1-3.9,2.7c-3.1,1.2-6.5,1.2-9.6,0c-1.5-0.6-2.8-1.6-3.9-2.7
								c-1.1-1.2-2-2.6-2.6-4.1c-0.6-1.7-0.9-3.4-0.9-5.2c-0.1-3.4,1.2-6.6,3.5-9.1C47,5.7,52.3,4.6,57,6.5c1.5,0.6,2.8,1.5,3.9,2.7
								c1.1,1.2,1.9,2.6,2.5,4.1c0.6,1.6,0.9,3.3,0.8,5C64.3,20.1,64,21.9,63.4,23.6z"/>
							<path id="Path_4" class="st1" d="M97.2,16.5v5.2h9v4c-0.5,0.9-1.2,1.7-2,2.4c-0.7,0.7-1.5,1.3-2.4,1.7
								c-0.8,0.5-1.8,0.8-2.7,1c-2.6,0.6-5.4,0.4-7.9-0.6c-3-1.3-5.3-3.7-6.5-6.8c-0.6-1.7-0.9-3.4-0.9-5.2c0-1.7,0.3-3.5,0.9-5.1
								c0.6-1.5,1.5-2.9,2.6-4.1c1.1-1.2,2.4-2.2,3.9-2.8c1.6-0.6,3.2-0.9,4.9-0.9c2.1,0,4.3,0.5,6.1,1.6c2.1,1.2,3.8,2.9,4.9,5
								l4.3-3.1L111,8.2c-0.8-1.3-1.8-2.5-2.9-3.5c-1.1-1-2.3-1.9-3.6-2.6c-1.3-0.7-2.7-1.2-4.2-1.6c-1.5-0.3-3-0.5-4.5-0.5
								C91-0.2,86.3,1.7,83,5.2c-1.7,1.7-3,3.7-3.8,5.9c-1.6,4.6-1.6,9.7,0,14.3c0.8,2.2,2.1,4.2,3.8,5.9c1.6,1.7,3.5,3,5.7,3.8
								c3.8,1.4,7.9,1.6,11.8,0.6c1.5-0.4,2.9-1,4.3-1.7c1.3-0.8,2.5-1.7,3.6-2.8c1.1-1.1,2-2.4,2.8-3.8V16.3h-14L97.2,16.5z"/>
							<rect id="Rectangle_1" x="122.4" y="0.9" class="st1" width="5.5" height="34.8"/>
							<path id="Path_5" class="st1" d="M167.2,23.5c0,0-3.6,7.8-11.7,7.8c-1.7,0-3.3-0.3-4.9-0.9c-1.5-0.6-2.8-1.6-3.9-2.7
								c-1.1-1.2-2-2.6-2.6-4.1c-0.6-1.7-0.9-3.4-0.9-5.2c0-1.7,0.3-3.5,0.9-5.1c0.6-1.5,1.5-2.9,2.6-4.1c1.1-1.2,2.4-2.1,3.9-2.8
								c1.6-0.6,3.2-0.9,4.9-0.9c7.5,0,11.1,6.6,11.1,6.6l4.3-3.2l-0.4-0.6c-0.8-1.3-1.8-2.5-2.9-3.5c-1.1-1-2.3-1.9-3.6-2.6
								c-1.3-0.7-2.7-1.2-4.2-1.6c-1.5-0.3-3-0.5-4.5-0.5c-4.8-0.2-9.5,1.7-12.8,5.2c-1.7,1.7-3,3.7-3.8,5.9
								c-1.7,4.6-1.7,9.7-0.1,14.3c0.8,2.2,2.1,4.2,3.8,5.9c1.6,1.7,3.5,3,5.7,3.8c3.8,1.4,7.9,1.6,11.8,0.6
								c1.6-0.4,3.1-0.9,4.5-1.7c1.4-0.8,2.6-1.8,3.7-3c1.1-1.2,2.1-2.5,2.8-4l0.3-0.5L167.2,23.5z"/>
						</g>
					</g>
					<path id="Path_6" class="st1" d="M397.7,0.1c-2.7,0-4.8,2.1-4.8,4.8s2.1,4.8,4.8,4.8c2.7,0,4.8-2.1,4.8-4.8c0,0,0,0,0,0
						C402.5,2.3,400.3,0.1,397.7,0.1z M397.7,8.8c-2.1,0-3.8-1.7-3.8-3.8s1.7-3.8,3.8-3.8c2.1,0,3.8,1.7,3.8,3.8c0,0,0,0,0,0
						C401.5,7.1,399.8,8.8,397.7,8.8z M399.1,5.3c0.1-0.1,0.3-0.2,0.4-0.3s0.2-0.3,0.3-0.4c0.1-0.2,0.1-0.3,0.1-0.5
						c0-0.2,0-0.4-0.1-0.6c-0.1-0.2-0.2-0.3-0.3-0.5c-0.2-0.1-0.3-0.2-0.5-0.3c-0.2-0.1-0.4-0.1-0.6-0.1h-2.7v4.7h1.1V5.5h1.2l1,1.8
						h1.2L399.1,5.3C399,5.3,399,5.3,399.1,5.3L399.1,5.3z M398.3,4.4h-1.7V3.5h1.7c0.2,0,0.4,0.2,0.4,0.4
						C398.7,4.1,398.5,4.4,398.3,4.4z"/>
				</g>
				<g id="Group_4">
					<path id="Path_7" class="st1" d="M84.7,74.1c-4-9.3-38.6-54.2-32.1-40c14.2,30.6,7,34.1,10.4,50.7c1.6,8,10.1,12.5,16.8,9.9
						C85.6,92.5,89.3,84.9,84.7,74.1z M55.4,20.5c5.2-6.1,3.5-15.5-2.6-19.1c-5.3-3.1-13.5-1.5-18.2,9c-1.1,2.5-3.7,10.7-6.3,20
						c-2.1,5.7-6.8,16.7-10.5,22.4c-0.2,0.3-0.4,0.6-0.6,1C9.6,64.6,2.5,75.5,1.3,78.6c-2.9,7.5-0.7,14,6,16.4
						c6.6,2.5,15.3-2,16.9-9.8c0.9-4.8,0.8-14.1,2.8-25.9c1.2-5,4.5-16.6,12.4-24.4C44.8,29.7,49.6,27.5,55.4,20.5z"/>
					<path id="Path_8" class="st1" d="M56.4,60.5c0,6.7-5.4,12.1-12.1,12.1s-12.1-5.4-12.1-12.1s5.4-12.1,12.1-12.1
						C50.9,48.4,56.3,53.8,56.4,60.5C56.4,60.5,56.4,60.5,56.4,60.5z"/>
				</g>
			</g>
		</g>
	</g>
</g>
</svg>
